<?xml version="1.0" standalone="no"?>
<!DOCTYPE svg PUBLIC "-//W3C//DTD SVG 20010904//EN"
 "http://www.w3.org/TR/2001/REC-SVG-20010904/DTD/svg10.dtd">
<svg version="1.0" xmlns="http://www.w3.org/2000/svg"
 width="2550.000000pt" height="1650.000000pt" viewBox="0 0 2550.000000 1650.000000"
 preserveAspectRatio="xMidYMid meet">

<g transform="translate(0.000000,1650.000000) scale(0.100000,-0.100000)"
fill="#000000" stroke="none">
<path d="M3462 9437 l-22 -23 0 -990 0 -991 23 -21 c22 -21 31 -22 243 -22
218 0 221 0 242 23 22 23 22 26 22 425 l0 402 385 0 385 0 0 -403 0 -404 23
-21 c22 -21 31 -22 238 -22 212 0 216 0 237 23 l22 23 0 996 c0 951 -1 996
-18 1011 -16 15 -48 17 -244 17 -205 0 -226 -2 -241 -18 -15 -17 -17 -59 -17
-400 l0 -382 -385 0 -385 0 0 378 0 379 -23 21 c-22 21 -31 22 -243 22 -218 0
-221 0 -242 -23z"/>
<path d="M5767 9442 c-16 -17 -17 -102 -17 -1014 l0 -995 23 -21 23 -22 710 0
711 0 21 23 c21 22 22 33 22 189 0 147 -2 167 -18 181 -17 15 -66 17 -495 17
l-477 0 0 225 0 225 398 0 399 0 21 23 c21 22 22 33 22 183 0 155 -1 161 -23
182 -23 22 -26 22 -420 22 l-397 0 0 195 0 195 473 0 474 0 21 23 c21 22 22
33 22 183 0 155 -1 161 -23 182 l-23 22 -716 0 c-680 0 -716 -1 -731 -18z"/>
<path d="M7667 9442 c-16 -17 -17 -102 -17 -1014 l0 -995 23 -21 c22 -21 31
-22 238 -22 212 0 216 0 237 23 l22 23 0 990 0 991 -23 21 c-22 21 -31 22
-244 22 -200 0 -221 -2 -236 -18z"/>
<path d="M8697 9442 c-16 -17 -17 -102 -17 -1014 l0 -995 23 -21 c22 -21 31
-22 238 -22 212 0 216 0 237 23 l22 23 0 584 0 583 397 -607 396 -606 232 0
c212 0 233 2 248 18 16 17 17 102 17 1019 0 956 -1 1001 -18 1016 -16 15 -48
17 -239 17 -216 0 -220 0 -241 -23 -22 -23 -22 -24 -24 -599 l-3 -575 -390
598 -390 598 -236 1 c-216 0 -237 -2 -252 -18z"/>
<path d="M11002 9437 l-22 -23 0 -990 0 -991 23 -21 23 -22 710 0 711 0 21 23
c21 22 22 33 22 189 0 147 -2 167 -18 181 -17 15 -66 17 -495 17 l-477 0 0
225 0 225 400 0 401 0 24 25 c24 24 25 28 25 180 0 152 -1 156 -25 180 l-24
25 -401 0 -400 0 0 195 0 195 478 0 c451 0 480 1 495 18 14 16 17 44 17 184 0
159 -1 165 -23 186 l-23 22 -710 0 -711 0 -21 -23z"/>
<path d="M12872 9437 l-22 -23 0 -990 0 -991 23 -21 c22 -21 31 -22 244 -22
200 0 221 2 236 18 15 17 17 57 17 365 l0 347 144 0 144 0 199 -362 200 -363
251 -3 250 -2 21 26 c12 15 21 29 21 33 0 3 -101 184 -224 401 l-225 394 60
34 c33 19 88 60 122 92 123 115 177 251 177 444 0 193 -46 315 -164 431 -111
110 -245 170 -446 200 -72 11 -205 15 -551 15 l-456 0 -21 -23z m975 -416 c65
-29 118 -86 133 -143 7 -23 10 -75 8 -115 -3 -60 -8 -79 -33 -115 -67 -95
-149 -118 -417 -118 l-168 0 0 261 0 261 213 -4 c195 -4 216 -6 264 -27z"/>
<path d="M14972 9437 l-22 -23 0 -990 0 -991 23 -21 c22 -21 31 -22 238 -22
212 0 216 0 237 23 22 23 22 27 22 405 l0 382 400 0 401 0 24 25 c24 24 25 27
25 185 0 158 -1 161 -25 185 l-24 25 -401 0 -400 0 0 215 0 215 458 0 c432 0
460 1 475 18 14 16 17 44 17 189 0 152 -2 172 -18 186 -17 16 -81 17 -714 17
l-695 0 -21 -23z"/>
<path d="M16827 9442 c-16 -17 -17 -102 -17 -1014 l0 -995 23 -21 c22 -21 31
-22 238 -22 212 0 216 0 237 23 l22 23 0 990 0 991 -23 21 c-22 21 -31 22
-244 22 -200 0 -221 -2 -236 -18z"/>
<path d="M17857 9442 c-16 -17 -17 -102 -17 -1014 l0 -995 23 -21 23 -22 680
0 681 0 21 23 c21 22 22 33 22 189 0 147 -2 167 -18 181 -17 15 -64 17 -465
17 l-447 0 0 813 c0 776 -1 815 -18 830 -16 15 -48 17 -244 17 -205 0 -226 -2
-241 -18z"/>
<path d="M19667 9442 c-16 -17 -17 -99 -17 -1014 l0 -995 23 -21 c22 -21 31
-22 238 -22 212 0 216 0 237 23 21 23 22 30 22 295 0 150 -7 416 -16 593 -8
176 -14 325 -12 330 2 6 82 -191 177 -438 96 -246 205 -528 243 -625 l70 -178
177 0 177 0 245 629 c134 346 245 628 247 626 2 -1 -4 -145 -13 -318 -8 -174
-15 -446 -15 -605 l0 -289 23 -21 c22 -21 31 -22 238 -22 212 0 216 0 237 23
l22 23 0 996 c0 951 -1 996 -18 1011 -16 15 -54 17 -323 17 l-304 0 -255 -675
c-139 -371 -257 -675 -260 -675 -3 0 -121 303 -261 673 l-256 672 -305 3
c-285 2 -306 1 -321 -16z"/>
</g>
</svg>
